<?xml version="1.0" encoding="iso-8859-1"?>
<!-- Uploaded to: SVG Repo, www.svgrepo.com, Generator: SVG Repo Mixer Tools -->
<svg version="1.1" id="Capa_1" xmlns="http://www.w3.org/2000/svg" xmlns:xlink="http://www.w3.org/1999/xlink" 
	 viewBox="0 0 460 460" xml:space="preserve">
<g id="XMLID_823_">
	<rect id="XMLID_824_" x="130" y="330" style="fill:#606060;" width="120" height="100"/>
	<polygon id="XMLID_825_" style="fill:#404040;" points="250,330 250,430 130,430 130,460 440,460 440,330 	"/>
	<polygon id="XMLID_826_" style="fill:#BFBFBF;" points="220,240 190,240 160,270 160,300 220,300 	"/>
	<polygon id="XMLID_827_" style="fill:#8F8F8F;" points="280,300 130,300 130,330 310,330 310,240 280,240 	"/>
	<rect id="XMLID_828_" y="430" style="fill:#8F8F8F;" width="130" height="30"/>
	<path id="XMLID_829_" style="fill:#E8E8E8;" d="M130,330H0v100h130V330z M45,395l20-40l20,40H45z"/>
	<polygon id="XMLID_832_" style="fill:#FFAA19;" points="45,395 85,395 65,355 	"/>
	<rect id="XMLID_833_" y="270" style="fill:#606060;" width="130" height="60"/>
	<rect id="XMLID_834_" x="235" y="90" style="fill:#404040;" width="30" height="60"/>
	<path id="XMLID_835_" style="fill:#A3A3A3;" d="M250,30v60h100v90h60c27.5,0,50-22.5,50-50V30H250z"/>
	<path id="XMLID_836_" style="fill:#BFBFBF;" d="M150,180V90h100V30H40v100c0,27.5,22.5,50,50,50H150z"/>
	<rect id="XMLID_837_" x="370" y="180" style="fill:#404040;" width="40" height="60"/>
	<rect id="XMLID_838_" x="95" style="fill:#404040;" width="30" height="30"/>
	<rect id="XMLID_839_" x="90" y="180" style="fill:#404040;" width="40" height="90"/>
	<polygon id="XMLID_840_" style="fill:#A3A3A3;" points="183.335,180 200,170 216.665,180 233.333,170 250,180 250,150 150,150 
		150,180 166.667,170 	"/>
	<polygon id="XMLID_841_" style="fill:#8F8F8F;" points="250,150 250,180 266.667,170 283.335,180 300,170 316.665,180 333.333,170 
		350,180 350,150 	"/>
	<polygon id="XMLID_842_" style="fill:#606060;" points="310,240 310,330 440,330 440,270 410,240 	"/>
</g>
</svg>